<?xml version="1.0" encoding="utf-8"?>
<!-- Generator: Adobe Illustrator 17.1.0, SVG Export Plug-In . SVG Version: 6.00 Build 0)  -->
<!DOCTYPE svg PUBLIC "-//W3C//DTD SVG 1.1//EN" "http://www.w3.org/Graphics/SVG/1.1/DTD/svg11.dtd">
<svg version="1.1" xmlns="http://www.w3.org/2000/svg" xmlns:xlink="http://www.w3.org/1999/xlink" x="0px" y="0px"
	 viewBox="0 0 368.504 208.347" width="368.504" height="208.347" enable-background="new 0 0 368.504 208.347" xml:space="preserve">
<g id="Label">
	<rect x="0.001" y="0.001" fill="#DA2323" width="368.504" height="208.346"/>
</g>
<g id="Logo_italienisch">
	<g>
		<g>
			<path fill="#FFFFFF" d="M290.544,166.778h-8.709v-29.945h7.068l1.228,2.932c1.123-1.955,3.094-3.523,7.65-3.523h1.441l-1.1,7.408
				c0,0-1.061-0.09-1.795-0.09c-2.59,0-4.527,1.434-5.785,3.644V166.778z"/>
			<path fill="#FFFFFF" d="M156.53,143.771c-3.062,0-4.75,2.861-4.75,8.062c0,5.164,1.688,8.006,4.75,8.006
				c3.113,0,4.754-2.77,4.754-8.006C161.284,146.56,159.643,143.771,156.53,143.771 M156.53,167.487
				c-10.068,0-13.639-8.432-13.639-15.654c0-11.581,7.045-15.71,13.639-15.71c6.598,0,13.645,4.129,13.645,15.71
				C170.174,163.374,163.128,167.487,156.53,167.487"/>
			<path fill="#FFFFFF" d="M183.374,159.3c0.635,0.371,1.529,0.715,3.155,0.715c2.422,0,5.645-0.889,5.645-8.594
				c0-5.15-1.576-7.65-4.812-7.65c-1.506,0-2.847,0.631-3.987,1.885V159.3z M186.061,167.487c-6.513,0-9.816-2.287-11.226-3.264
				l-0.172-0.117v-38.916l8.711-1.193v15.051c1.277-1.307,3.569-2.926,7.122-2.926c6.715,0,10.568,5.189,10.568,14.234
				C201.064,161.722,196.014,167.487,186.061,167.487"/>
			<path fill="#FFFFFF" d="M210.324,134.097c-2.781,0-4.443-1.619-4.443-4.332v-0.273c0-2.719,1.617-4.277,4.443-4.277
				c2.822,0,4.445,1.559,4.445,4.277v0.273C214.77,132.478,213.105,134.097,210.324,134.097 M214.68,166.776h-8.711V136.83h8.711
				V166.776z"/>
			<polygon fill="#FFFFFF" points="221.004,166.776 229.77,166.776 229.77,123.998 221.004,125.214 			"/>
			<path fill="#FFFFFF" d="M240.453,134.097c-2.779,0-4.443-1.619-4.443-4.332v-0.273c0-2.719,1.621-4.277,4.443-4.277
				c2.822,0,4.445,1.559,4.445,4.277v0.273C244.898,132.478,243.238,134.097,240.453,134.097 M244.811,166.776h-8.709V136.83h8.709
				V166.776z"/>
			<path fill="#FFFFFF" d="M267.341,158.149c-0.871,1.119-2.172,1.689-3.865,1.689c-2.352,0-5.049-0.898-5.049-7.889
				c0-5.505,2.055-8.3,6.113-8.3c1.148,0,2.027,0.145,2.801,0.459V158.149z M275.902,138.533c-1.268-0.66-4.637-2.41-10.475-2.41
				c-10.097,0-15.886,5.875-15.886,16.124c0,9.826,4.086,15.24,11.509,15.24c2.426,0,5.074-0.738,6.469-2.512
				c0.197-0.252,0.32-0.479,0.32-0.479l0.949,2.262h7.303v-10.475V138.63L275.902,138.533z"/>
			<path fill="#FFFFFF" d="M321.197,158.419c-1.66,1.131-3.963,1.703-6.143,1.703c-4.039,0-6.537-1.518-6.9-5.846h17.742
				c0,0,0.041-2.379,0.055-3.172c0.174-9.96-5.004-15.011-12.588-15.011c-8.955,0-14.02,7.365-14.02,15.248
				c0,9.377,5.158,16.129,14.85,16.129c5.893,0,9.346-2.166,11.156-3.914l-3.871-5.381L321.197,158.419z M313.564,143.455
				c2.885,0,4.682,1.51,4.963,5.128h-10.414C308.578,144.816,310.675,143.455,313.564,143.455z"/>
			<polygon fill="#FFFFFF" points="127.452,125.194 117.303,152.464 107.209,125.194 97.864,125.194 95.163,166.768 103.93,166.768 
				105.259,144.221 113.957,166.768 120.588,166.768 129.227,144.221 130.556,166.768 139.383,166.768 136.682,125.194 			"/>
		</g>
		<g>
			<g>
				<path fill="#FFFFFF" d="M48.193,161.872l4.476-37.837l-0.139-0.033c-0.5-0.125-1.92-0.252-2.576-0.252
					c-2.686,0-4.816,0.781-6.172,1.469c-0.6,0.602-1.162,2.611-1.162,3.268v0.18l4.428-0.492l-4.557,34.544
					c0,1.135,1.029,3.322,2.203,4.682l0.049,0.057h0.074c1.844,0,5.447-0.697,7.414-1.434l0.053-0.02l0.027-0.047
					c0.512-0.83,1.014-2.588,1.014-3.549v-0.178l-4.885,0.502C48.326,162.452,48.195,161.98,48.193,161.872z"/>
			</g>
			<g>
				<path fill="#FFFFFF" d="M79.304,162.732c-0.117-0.355-0.256-0.988-0.258-1.105l2.982-22.791l-0.08-0.055
					c-1.486-1.051-4.674-2.815-9.307-2.815c-5.887,0-9.576,3.365-11.633,6.191c-2.613,3.645-4.111,8.773-4.111,14.068
					c0,9.77,5.1,11.23,8.139,11.23c2.691,0,6.408-1.205,8.801-4.576h0.092c0.264,1.461,0.928,3.326,1.602,4.494l0.049,0.082h0.092
					c1.688,0,5.52-0.676,7.42-1.436l0.049-0.017l0.029-0.047c0.5-0.816,1.012-2.576,1.012-3.486v-0.176L79.304,162.732z
					 M67.572,162.927c-3.293,0-5.033-2.553-5.033-7.383c0-3.496,0.814-8.383,2.637-11.418c1.74-2.854,4.508-4.559,7.404-4.559
					c1.41,0,2.904,0.332,3.846,0.852l-2.504,18.08C72.488,161.189,69.994,162.927,67.572,162.927z"/>
			</g>
		</g>
	</g>
</g>
<g id="Schutzzone" display="none">
</g>
</svg>
